<svg xmlns="http://www.w3.org/2000/svg" width="16" height="16" fill="none" viewBox="0 0 16 16"><path fill="#4865DB" d="M8 1.333a.667.667 0 0 1 .667.667v6.115l1.529-1.529a.667.667 0 0 1 .943.943l-2.667 2.667a.667.667 0 0 1-.943 0L4.862 7.529a.667.667 0 1 1 .943-.943l1.528 1.529V2a.667.667 0 0 1 .667-.667ZM2.667 11.333a.667.667 0 0 1 .667.667v.667c0 .368.298.666.666.666h8a.667.667 0 0 0 .667-.666V12a.667.667 0 1 1 1.333 0v.667A2 2 0 0 1 12 14.667H4A2 2 0 0 1 2 12.667V12a.667.667 0 0 1 .667-.667Z"/></svg>
