<svg width="20" height="22" viewBox="0 0 20 22" fill="none" xmlns="http://www.w3.org/2000/svg">
<path d="M12.375 1.24609C12.332 1.54688 12.2031 1.97656 12.0312 2.19141L8.46484 6.1875H11C11.3438 6.1875 11.6875 6.53125 11.6875 6.875V7.5625C11.6875 7.94922 11.3438 8.25 11 8.25H6.1875C5.80078 8.25 5.5 7.94922 5.5 7.5625V7.00391C5.5 6.74609 5.62891 6.31641 5.80078 6.10156L9.36719 2.0625H6.875C6.48828 2.0625 6.1875 1.76172 6.1875 1.375V0.6875C6.1875 0.34375 6.48828 0 6.875 0H11.6875C12.0312 0 12.375 0.34375 12.375 0.6875V1.24609ZM8.59375 11C9.15234 11 9.625 11.4727 9.625 12.0312V13.1484C9.58203 13.4492 9.41016 13.8789 9.19531 14.0938L3.95312 19.25H8.9375C9.28125 19.25 9.625 19.5938 9.625 19.9375V21.3125C9.625 21.6992 9.28125 22 8.9375 22H1.03125C0.429688 22 0 21.5703 0 20.9688V19.8945C0 19.5938 0.171875 19.1641 0.386719 18.9492L5.62891 13.75H1.375C0.988281 13.75 0.6875 13.4492 0.6875 13.0625V11.6875C0.6875 11.3438 0.988281 11 1.375 11H8.59375ZM18.5625 9.625C18.9062 9.625 19.25 9.96875 19.25 10.3125V10.8711C19.207 11.1719 19.0781 11.6016 18.9062 11.8164L15.3398 15.8125H17.875C18.2188 15.8125 18.5625 16.1562 18.5625 16.5V17.1875C18.5625 17.5742 18.2188 17.875 17.875 17.875H13.0625C12.6758 17.875 12.375 17.5742 12.375 17.1875V16.6289C12.375 16.3711 12.5039 15.9414 12.6758 15.7266L16.2422 11.6875H13.75C13.3633 11.6875 13.0625 11.3867 13.0625 11V10.3125C13.0625 9.96875 13.3633 9.625 13.75 9.625H18.5625Z" fill="#57577B"/>
</svg>
