<svg width="154" height="154" viewBox="0 0 154 154" fill="none" xmlns="http://www.w3.org/2000/svg">
<circle cx="76.665" cy="76.9983" r="76.665" fill="#FF9B99"/>
<path d="M54.5147 71.9269C55.7413 71.3749 56.9453 70.7603 58.044 69.9843C61.6333 67.447 63.9067 63.1416 63.9773 58.7469C63.9867 58.1403 63.9533 57.5163 63.704 56.9629C63.0946 55.6109 61.3146 55.1029 59.8893 55.5163C58.464 55.9296 57.3493 57.035 56.4266 58.1976C55.5053 59.3603 54.6946 60.6323 53.5653 61.595C52.5826 62.4323 51.4 63.0003 50.204 63.4883C46.6613 64.9323 42.4213 65.7003 39.1493 63.7163C38.4813 63.3123 37.88 62.8056 37.276 62.3109C35.7493 61.0616 34.1186 59.8389 32.204 59.3656C30.2906 58.8923 28.0173 59.3483 26.86 60.9443C25.9 62.2696 25.9013 64.1203 26.532 65.631C27.1626 67.1403 28.336 68.3602 29.5946 69.4056C33.7266 72.8416 39.1253 74.7789 44.4933 74.5389C47.9626 74.3842 51.348 73.3523 54.5147 71.9269Z" fill="#21214D"/>
<path d="M98.9013 71.9269C97.6746 71.3749 96.4706 70.7603 95.3719 69.9843C91.7826 67.447 89.5093 63.1416 89.4386 58.7469C89.4293 58.1403 89.4626 57.5163 89.712 56.9629C90.3213 55.6109 92.1013 55.1029 93.5266 55.5163C94.9519 55.9296 96.0666 57.035 96.9893 58.1976C97.9106 59.3603 98.7226 60.6323 99.8506 61.595C100.833 62.4323 102.016 63.0003 103.212 63.4883C106.755 64.9323 110.995 65.7003 114.267 63.7163C114.935 63.3123 115.536 62.8056 116.14 62.3109C117.667 61.0616 119.297 59.8389 121.212 59.3656C123.125 58.8923 125.399 59.3483 126.556 60.9443C127.516 62.2696 127.515 64.1203 126.884 65.631C126.253 67.1403 125.08 68.3602 123.821 69.4056C119.689 72.8416 114.291 74.7789 108.923 74.5389C105.453 74.3842 102.068 73.3523 98.9013 71.9269Z" fill="#21214D"/>
<path opacity="0.3" d="M44.2333 34.9016C49.3133 31.2736 53.372 29.0203 56.3346 30.887C59.296 32.7536 59.352 39.1509 54.992 41.4736C50.6306 43.7963 38.2026 51.123 20.8546 46.5536C18.1946 46.039 21.724 39.7563 28.988 39.8843C36.2533 40.0136 42.4226 36.1616 44.2333 34.9016Z" fill="#21214D"/>
<path opacity="0.3" d="M109.183 34.9016C104.103 31.2736 100.044 29.0203 97.0827 30.887C94.12 32.7536 94.064 39.1509 98.424 41.4736C102.785 43.7963 115.213 51.123 132.561 46.5536C135.221 46.039 131.692 39.7563 124.428 39.8843C117.163 40.0136 110.993 36.1616 109.183 34.9016Z" fill="#21214D"/>
<path d="M111.34 119.791C108.896 123.972 99.8293 124.388 97.1147 120.606C91.304 113.42 81.5493 114.759 76.6986 114.759C71.8666 114.759 62.1106 113.42 56.3013 120.606C53.5866 124.388 44.52 123.972 42.076 119.791C40.4293 116.931 36.9 112.462 42.8186 103.556L42.8547 103.502C43.8133 102.326 44.8093 101.204 45.8413 100.136C54.3293 91.2857 65.044 86.0004 76.6986 86.0004C88.3546 86.0004 99.0867 91.2857 107.576 100.136C108.607 101.204 109.603 102.326 110.561 103.502L110.597 103.556C116.516 112.462 112.987 116.931 111.34 119.791Z" fill="#21214D"/>
<path d="M47.6506 107.031C49.7506 110.344 56.248 108.534 58.9626 107.031C65.8933 102.796 73.5853 103.286 76.8613 103.286C80.1373 103.286 87.5226 102.796 94.4533 107.031C97.168 108.534 103.667 110.344 105.765 107.031C106.327 106.142 106.897 105.046 107.257 103.784C107.535 102.816 108.097 100.671 107.328 99.8804C106.369 98.8937 105.384 97.9524 104.371 97.0591C103.357 96.1644 102.319 95.3191 101.255 94.5231C94.0053 89.0991 85.6226 86.0004 76.6986 86.0004C67.776 86.0004 59.404 89.0978 52.16 94.5231C51.0973 95.3178 50.0573 96.1644 49.0453 97.0577C48.032 97.9524 47.0466 98.8937 46.0867 99.8804C45.3187 100.671 45.8813 102.816 46.1573 103.784C46.5187 105.046 47.0893 106.142 47.6506 107.031Z" fill="white"/>
<path d="M47.6506 107.031C49.7506 110.344 56.248 108.534 58.9626 107.031C65.8933 102.796 73.5853 103.286 76.8613 103.286C80.1373 103.286 87.5226 102.796 94.4533 107.031C97.168 108.534 103.667 110.344 105.765 107.031C106.327 106.142 106.897 105.046 107.257 103.784C107.535 102.816 108.097 100.671 107.328 99.8804C106.369 98.8937 105.384 97.9524 104.371 97.0591C103.357 96.1644 102.319 95.3191 101.255 94.5231C94.0053 89.0991 85.6226 86.0004 76.6986 86.0004C67.776 86.0004 59.404 89.0978 52.16 94.5231C51.0973 95.3178 50.0573 96.1644 49.0453 97.0577C48.032 97.9524 47.0466 98.8937 46.0867 99.8804C45.3187 100.671 45.8813 102.816 46.1573 103.784C46.5187 105.046 47.0893 106.142 47.6506 107.031Z" fill="white"/>
<path d="M47.6504 107.03C49.6599 110.209 55.7291 108.67 58.6113 107.212C58.57 106.858 58.5212 106.494 58.4798 106.116C55.5398 107.573 49.347 109.303 47.2305 106.33C47.3705 106.578 47.5104 106.807 47.6504 107.03Z" fill="white"/>
<path d="M47.2305 106.33C49.347 109.303 55.5398 107.573 58.4798 106.116C58.4305 105.737 58.3893 105.349 58.348 104.946C55.3092 106.412 49.1577 108.075 46.8271 105.547C46.9591 105.819 47.0905 106.075 47.2305 106.33Z" fill="white"/>
<path d="M46.8271 105.547C49.1577 108.075 55.3092 106.412 58.348 104.946C58.3066 104.542 58.2735 104.131 58.2415 103.703C55.0957 105.177 49.0095 106.775 46.4648 104.7C46.5715 104.996 46.6954 105.275 46.8271 105.547Z" fill="white"/>
<path d="M46.4648 104.7C49.0095 106.775 55.0957 105.177 58.2415 103.703C58.2082 103.274 58.1843 102.839 58.167 102.394C54.9717 103.868 48.8031 105.654 46.1514 103.785C46.242 104.098 46.3495 104.403 46.4648 104.7Z" fill="white"/>
<path d="M58.6113 107.212C58.7353 107.155 58.8513 107.095 58.9583 107.029C58.933 106.667 58.909 106.289 58.8757 105.902C58.761 105.968 58.6033 106.05 58.4798 106.116C58.5212 106.494 58.57 106.858 58.6113 107.212Z" fill="white"/>
<path d="M58.4798 106.116C58.6038 106.05 58.7595 105.967 58.8747 105.901C58.8507 105.515 58.8256 105.119 58.8096 104.707C58.6532 104.782 58.5044 104.863 58.348 104.946C58.3893 105.349 58.4305 105.737 58.4798 106.116Z" fill="white"/>
<path d="M58.348 104.946C58.5044 104.863 58.6532 104.782 58.8096 104.707C58.7842 104.296 58.7681 103.869 58.7601 103.432C58.5789 103.523 58.4226 103.604 58.2415 103.703C58.2749 104.131 58.3066 104.542 58.348 104.946Z" fill="white"/>
<path d="M58.2415 103.703C58.4226 103.604 58.5789 103.523 58.7601 103.432C58.7441 103.004 58.7448 102.55 58.7448 102.097C58.5472 102.196 58.3563 102.295 58.167 102.394C58.183 102.839 58.2082 103.274 58.2415 103.703Z" fill="white"/>
<path d="M58.9583 107.029C65.8842 102.805 73.5587 103.283 76.8444 103.283C76.8444 102.962 76.8444 102.624 76.8444 102.278C73.4351 102.278 65.7521 101.817 58.8757 105.902C58.909 106.289 58.933 106.667 58.9583 107.029Z" fill="white"/>
<path d="M58.8757 105.902C65.7521 101.817 73.4351 102.278 76.8444 102.278C76.8444 101.932 76.8304 101.578 76.8304 101.208C73.1575 101.208 65.5813 100.919 58.8037 104.708C58.8197 105.119 58.8448 105.515 58.8688 105.902L58.8757 105.902Z" fill="white"/>
<path d="M58.8083 104.708C65.5859 100.92 73.162 101.208 76.835 101.208C76.835 100.838 76.835 100.45 76.835 100.054C72.8903 100.054 65.4293 99.9569 58.7588 103.432C58.7721 103.869 58.7829 104.296 58.8083 104.708Z" fill="white"/>
<path d="M58.7601 103.432C65.4306 99.9568 72.8913 100.054 76.8359 100.054C76.8359 99.6586 76.8363 99.2561 76.8229 98.8443C72.7629 98.8443 65.3676 98.7613 58.7383 102.097C58.7383 102.55 58.7386 103.003 58.7546 103.432L58.7601 103.432Z" fill="white"/>
<path d="M76.8444 103.283C76.8577 103.283 76.8577 103.283 76.8604 103.283C76.8604 102.962 76.8604 102.624 76.8604 102.278C76.847 102.278 76.8444 102.278 76.8444 102.278C76.8444 102.624 76.8444 102.962 76.8444 103.283Z" fill="white"/>
<path d="M76.8444 102.278C76.8444 102.278 76.8577 102.278 76.8604 102.278C76.8604 101.932 76.8604 101.578 76.8604 101.207C76.847 101.207 76.8443 101.208 76.835 101.208C76.835 101.579 76.8486 101.932 76.8486 102.278L76.8444 102.278Z" fill="white"/>
<path d="M76.835 101.208C76.8483 101.208 76.851 101.207 76.8604 101.207C76.8604 100.837 76.8604 100.449 76.8604 100.054C76.847 100.054 76.8443 100.054 76.835 100.054C76.835 100.45 76.835 100.838 76.835 101.208Z" fill="white"/>
<path d="M76.8359 100.054C76.8493 100.054 76.852 100.054 76.8613 100.054C76.8613 99.6585 76.8613 99.2559 76.8613 98.8442C76.848 98.8442 76.8455 98.8442 76.8281 98.8442C76.8415 99.2559 76.8411 99.6585 76.8411 100.054L76.8359 100.054Z" fill="white"/>
<path d="M76.8604 103.283C80.138 103.283 87.5167 102.797 94.4508 107.03C94.5255 106.692 94.5987 106.347 94.6729 105.976C87.7718 101.842 80.278 102.278 76.8604 102.278C76.8604 102.624 76.8604 102.962 76.8604 103.283Z" fill="white"/>
<path d="M76.8604 102.278C80.278 102.278 87.7718 101.842 94.6729 105.976C94.7475 105.614 94.8212 105.243 94.887 104.856C88.0436 100.919 80.5826 101.207 76.8604 101.207C76.8604 101.578 76.8604 101.932 76.8604 102.278Z" fill="white"/>
<path d="M76.8604 101.207C80.5826 101.207 88.0436 100.919 94.887 104.856C94.9617 104.469 95.0272 104.066 95.085 103.662C88.2991 99.9317 80.8873 100.062 76.8604 100.054C76.8604 100.449 76.8604 100.837 76.8604 101.207Z" fill="white"/>
<path d="M76.8604 100.054C80.8873 100.067 88.2991 99.9311 95.085 103.662C95.1423 103.25 95.1995 102.83 95.2412 102.394C88.4884 98.7619 81.0283 98.8524 76.8613 98.8442C76.8613 99.2559 76.8604 99.6588 76.8604 100.054Z" fill="white"/>
<path d="M94.4508 107.03C97.1684 108.537 103.666 110.34 105.766 107.029C105.906 106.807 106.047 106.577 106.178 106.33C103.996 109.41 97.4646 107.475 94.6729 105.976C94.5987 106.347 94.5255 106.692 94.4508 107.03Z" fill="white"/>
<path d="M94.6729 105.976C97.4646 107.475 103.996 109.41 106.178 106.33C106.318 106.075 106.458 105.819 106.581 105.547C104.209 108.141 97.8434 106.346 94.887 104.856C94.8212 105.243 94.7475 105.614 94.6729 105.976Z" fill="white"/>
<path d="M94.8877 104.857C97.8441 106.347 104.209 108.141 106.581 105.547C106.713 105.275 106.837 104.997 106.952 104.7C104.391 106.792 98.206 105.136 95.085 103.662C95.0276 104.066 94.9614 104.47 94.8877 104.857Z" fill="white"/>
<path d="M95.085 103.662C98.206 105.136 104.391 106.792 106.952 104.7C107.059 104.404 107.167 104.097 107.257 103.784C104.606 105.654 98.4364 103.876 95.2412 102.394C95.1995 102.83 95.1423 103.25 95.085 103.662Z" fill="white"/>
<path d="M46.1524 103.785C48.7383 105.605 54.6762 103.958 57.9291 102.501C57.8051 101.06 57.5169 98.4322 58.0274 97.1557C54.5274 98.6051 49.109 100.5 46.0867 99.8822C45.3208 100.673 45.8812 102.813 46.1524 103.785Z" fill="white"/>
<path d="M57.9281 102.5C58.0108 102.467 58.0929 102.435 58.167 102.394C58.0763 100.936 57.8127 98.293 58.348 97.0082C58.2414 97.0576 58.1335 97.1058 58.0264 97.1554C57.5158 98.4319 57.8044 101.059 57.9281 102.5Z" fill="white"/>
<path d="M58.167 102.394C64.9281 98.7622 72.6199 98.8442 76.8116 98.8442C76.7983 97.4771 76.7986 94.9324 76.796 93.7465C71.9125 93.7465 64.8544 94.0012 58.3487 97.0069C57.8134 98.2917 58.0763 100.936 58.167 102.394Z" fill="white"/>
<path d="M76.8116 98.8442C76.8249 98.8442 76.8255 98.8442 76.8281 98.8442C76.8415 97.4771 76.8532 94.9324 76.8532 93.7465C76.8372 93.7465 76.812 93.7465 76.796 93.7465C76.8093 94.9324 76.8089 97.4771 76.8116 98.8442Z" fill="white"/>
<path d="M76.8281 98.8442C76.8441 98.8442 76.8533 98.8442 76.8613 98.8442C76.8747 97.4771 76.8737 94.9324 76.8604 93.7465C76.8604 93.7465 76.86 93.7465 76.8467 93.7465C76.8467 94.9324 76.8306 97.4771 76.8213 98.8442H76.8281Z" fill="white"/>
<path d="M76.8613 98.8442C81.0283 98.8575 88.4884 98.7616 95.2412 102.394C95.4388 100.985 95.8095 98.3998 95.3812 97.1645C88.8177 94.0269 81.7933 93.7548 76.8604 93.7465C76.8737 94.9324 76.8747 97.4771 76.8613 98.8442Z" fill="white"/>
<path d="M95.2412 102.394C98.4364 103.876 104.606 105.654 107.257 103.784C107.529 102.813 108.097 100.672 107.323 99.8819C104.308 100.5 98.8812 98.6057 95.3812 97.1645C95.8095 98.3998 95.4388 100.985 95.2412 102.394Z" fill="white"/>
<path d="M46.085 99.8822C49.1072 100.5 54.5264 98.6048 58.0264 97.1554C58.5535 95.7224 59.0881 94.3226 59.6481 92.9721C56.14 94.4133 52.7225 96.1014 49.0413 97.0567C48.0284 97.9543 47.0403 98.894 46.085 99.8822Z" fill="white"/>
<path d="M58.0274 97.1557C59.205 96.5957 60.4078 96.1269 61.61 95.7315C61.9147 94.3974 62.2442 93.1047 62.5736 91.8695C61.5854 92.1989 60.6133 92.5771 59.6497 92.9724C59.0897 94.3229 58.5545 95.7227 58.0274 97.1557Z" fill="white"/>
<path d="M61.61 95.7315C67.1276 93.9281 72.7196 93.7465 76.796 93.7465C76.796 92.363 76.7822 91.0201 76.7822 89.7272C71.9812 89.7139 67.1304 90.3126 62.568 91.8691C62.2387 93.1043 61.9092 94.397 61.6045 95.7311L61.61 95.7315Z" fill="white"/>
<path d="M76.7943 93.7465C76.8103 93.7465 76.8356 93.7465 76.8516 93.7465C76.8382 92.363 76.8264 91.0199 76.8184 89.727C76.805 89.727 76.7932 89.727 76.7852 89.727C76.7852 91.0199 76.7982 92.363 76.7982 93.7465H76.7943Z" fill="white"/>
<path d="M76.8532 93.7465C76.8665 93.7465 76.8659 93.7465 76.8659 93.7465C76.8659 92.363 76.8523 91.0199 76.8496 89.727C76.8363 89.727 76.8336 89.727 76.8242 89.727C76.8376 91.0199 76.8501 92.363 76.8581 93.7465H76.8532Z" fill="white"/>
<path d="M76.8604 93.7465C80.8709 93.7598 86.274 93.9269 91.6846 95.6892C91.3799 94.3551 91.0751 93.0715 90.7458 91.8363C86.2823 90.321 81.5389 89.7435 76.8447 89.727C76.8581 91.0199 76.8604 92.363 76.8604 93.7465Z" fill="white"/>
<path d="M91.6846 95.6892C92.9199 96.0928 94.1541 96.5798 95.3812 97.1645C94.8624 95.7233 94.32 94.3231 93.7682 92.9809C92.7718 92.5691 91.767 92.1822 90.7458 91.8363C91.0751 93.0715 91.3799 94.3551 91.6846 95.6892Z" fill="white"/>
<path d="M95.3812 97.1645C98.8812 98.6057 104.308 100.5 107.323 99.8819C106.367 98.8936 105.379 97.954 104.367 97.0564C100.685 96.1093 97.2682 94.4138 93.7682 92.9809C94.32 94.3231 94.8624 95.7233 95.3812 97.1645Z" fill="white"/>
<path d="M49.043 97.0567C53.7454 95.8379 58.003 93.4259 62.5736 91.8695C62.6802 91.5483 62.7875 91.2342 62.8945 90.9213C58.3899 92.4613 54.3462 94.9403 49.8086 96.3979C49.5534 96.612 49.2983 96.8343 49.043 97.0567Z" fill="white"/>
<path d="M49.8086 96.3979C54.3462 94.9403 58.3899 92.4613 62.8945 90.9213C63.0012 90.6084 63.1084 90.3042 63.2155 89.9994C58.8591 91.4982 54.7497 93.7795 50.5827 95.7559C50.3192 95.9618 50.0639 96.1755 49.8086 96.3979Z" fill="white"/>
<path d="M50.5827 95.7559C54.7497 93.7795 58.8591 91.4982 63.2155 89.9994C63.3222 89.6865 63.4289 89.3897 63.5443 89.0932C59.3277 90.559 55.1692 92.6344 51.3646 95.1296C51.101 95.3355 50.838 95.5418 50.5827 95.7559Z" fill="white"/>
<path d="M51.3646 95.1296C55.1692 92.6344 59.3277 90.559 63.5443 89.0932C63.6509 88.7885 63.758 88.4917 63.8734 88.2035C59.7311 89.6529 55.8028 91.7941 52.1546 94.5199C51.8912 94.7175 51.6281 94.9238 51.3646 95.1296Z" fill="white"/>
<path d="M62.5719 91.8694C67.1425 90.3129 72.009 89.7187 76.8184 89.727C76.805 89.4058 76.7935 89.086 76.7855 88.7731C72.0337 88.7597 67.3805 89.3815 62.8923 90.9215C62.7856 91.2344 62.679 91.5482 62.5719 91.8694Z" fill="white"/>
<path d="M62.8945 90.9213C67.3828 89.3813 72.035 88.7644 76.7868 88.7725C76.7734 88.4515 76.7709 88.1376 76.7536 87.8246C72.1336 87.8246 67.5472 88.5006 63.2155 89.9994C63.1084 90.3042 63.0012 90.6084 62.8945 90.9213Z" fill="white"/>
<path d="M63.2155 89.9994C67.5472 88.5006 72.1336 87.8246 76.7536 87.8246C76.7402 87.5198 76.7385 87.2074 76.7292 86.9027C72.2328 86.9027 67.7029 87.6356 63.5443 89.0932C63.4289 89.3897 63.3222 89.6865 63.2155 89.9994Z" fill="white"/>
<path d="M63.5443 89.0932C67.7029 87.6356 72.2328 86.9027 76.7292 86.9027C76.7158 86.5981 76.7036 86.3012 76.6956 85.9965C72.2568 85.9965 67.9663 86.7623 63.8734 88.2035C63.758 88.4917 63.6509 88.7885 63.5443 89.0932Z" fill="white"/>
<path d="M76.8193 89.7273C76.8193 89.4061 76.8193 89.0858 76.8193 88.7729C76.806 88.7729 76.7948 88.7725 76.7868 88.7725C76.8001 89.0855 76.8113 89.4061 76.8193 89.7273Z" fill="white"/>
<path d="M76.7868 88.7725C76.8001 88.7725 76.8113 88.7729 76.8193 88.7729C76.806 88.4518 76.8063 88.1376 76.8063 87.8246C76.7903 87.8246 76.773 87.8246 76.749 87.8246C76.765 88.1376 76.7742 88.4515 76.7822 88.7725H76.7868Z" fill="white"/>
<path d="M76.7536 87.8246C76.7789 87.8246 76.7942 87.8246 76.8102 87.8246C76.8102 87.5198 76.8102 87.2074 76.8102 86.9027C76.7769 86.9027 76.7609 86.9027 76.7275 86.9027C76.7409 87.2074 76.7442 87.5198 76.7536 87.8246Z" fill="white"/>
<path d="M76.7292 86.9027C76.7625 86.9027 76.7769 86.9027 76.8102 86.9027C76.8102 86.5981 76.8109 86.3012 76.8109 85.9965C76.7695 85.9965 76.7356 85.9965 76.6956 85.9965C76.709 86.3012 76.7212 86.5981 76.7292 86.9027Z" fill="white"/>
<path d="M76.8193 89.7273C81.5299 89.7433 86.274 90.321 90.7458 91.8363C90.6471 91.5151 90.539 91.2017 90.432 90.8888C86.0261 89.3982 81.4723 88.7811 76.8193 88.7729C76.8193 89.0858 76.8193 89.4061 76.8193 89.7273Z" fill="white"/>
<path d="M76.8193 88.7729C81.4723 88.7862 86.0261 89.3982 90.432 90.8888C90.3253 90.5841 90.2187 90.2713 90.1117 89.9666C85.8541 88.509 81.3491 87.841 76.8115 87.8246C76.8115 88.1376 76.8119 88.4515 76.8252 88.7725L76.8193 88.7729Z" fill="white"/>
<path d="M76.8115 87.8246C81.3491 87.841 85.8541 88.509 90.1117 89.9666C90.005 89.6619 89.8971 89.365 89.79 89.0603C85.6807 87.6356 81.2339 86.9193 76.8115 86.9027C76.8115 87.2074 76.8115 87.5198 76.8115 87.8246Z" fill="white"/>
<path d="M76.8115 86.9027C81.2339 86.9193 85.6807 87.6356 89.79 89.0603C89.6754 88.7639 89.5681 88.4671 89.4528 88.1788C85.4176 86.7707 81.1755 86.013 76.8109 85.9965C76.8109 86.3012 76.8115 86.5981 76.8115 86.9027Z" fill="white"/>
<path d="M90.7458 91.8363C95.3492 93.3927 99.6396 95.8376 104.367 97.0564C104.111 96.834 103.856 96.6123 103.601 96.3982C99.0383 94.9406 94.9696 92.4369 90.432 90.8888C90.539 91.2017 90.6471 91.5151 90.7458 91.8363Z" fill="white"/>
<path d="M90.432 90.8888C94.9696 92.4369 99.0383 94.9406 103.601 96.3982C103.345 96.1841 103.09 95.9621 102.826 95.7563C98.6262 93.7716 94.501 91.4736 90.1117 89.9666C90.2187 90.2713 90.3253 90.5841 90.432 90.8888Z" fill="white"/>
<path d="M90.1117 89.9666C94.501 91.4736 98.6262 93.7716 102.826 95.7563C102.571 95.5421 102.308 95.3358 102.045 95.13C98.2153 92.6265 94.023 90.5344 89.79 89.0603C89.8971 89.365 90.005 89.6619 90.1117 89.9666Z" fill="white"/>
<path d="M89.79 89.0603C94.023 90.5344 98.2153 92.6265 102.045 95.13C101.781 94.9241 101.516 94.7179 101.253 94.5203C97.5883 91.7779 93.628 89.6283 89.4528 88.1788C89.5681 88.4671 89.6754 88.7639 89.79 89.0603Z" fill="white"/>
</svg>
